# xmcd
#
# Track frame offsets:
# 150
# 21280
# 37588
# 50395
# 68050
# 90616
# 115669
# 140904
# 156319
# 173595
# 187680
#
# Disc length: 2586 seconds
#
#
# Revision: 0
# Processed by: cddbd v1.5.2PL0 Copyright (c) Steve Scherf et al.
# Submitted via: FreeRIP 2.943 
#
DISCID=830a180b
DTITLE=蓓麗 - I DEBUT KOUMIS
DYEAR=1900
DGENRE=
TTITLE0=誰
TTITLE1=蚊
TTITLE2=朵朵
TTITLE3=表演
TTITLE4=纏
TTITLE5=會不會
TTITLE6=彩虹
TTITLE7=改變
TTITLE8=這裡
TTITLE9=沒關係
TTITLE10=雨後
EXTD=
EXTT0=
EXTT1=
EXTT2=
EXTT3=
EXTT4=
EXTT5=
EXTT6=
EXTT7=
EXTT8=
EXTT9=
EXTT10=
PLAYORDER=
